<?xml version="1.0" encoding="UTF-8"?>
<!DOCTYPE svg PUBLIC "-//W3C//DTD SVG 1.1//EN" "http://www.w3.org/Graphics/SVG/1.1/DTD/svg11.dtd">
<!-- Creator: CorelDRAW -->
<svg xmlns="http://www.w3.org/2000/svg" xml:space="preserve" width="2048px" height="2048px" style="shape-rendering:geometricPrecision; text-rendering:geometricPrecision; image-rendering:optimizeQuality; fill-rule:evenodd; clip-rule:evenodd"
viewBox="0 0 2048 2048"
 xmlns:xlink="http://www.w3.org/1999/xlink">
 <defs>
  <style type="text/css">
   <![CDATA[
    .fil2 {fill:none}
    .fil1 {fill:#C0CA33}
    .fil0 {fill:#DCE775}
    .fil4 {fill:#00695C;fill-rule:nonzero}
    .fil3 {fill:#00796B;fill-rule:nonzero}
    .fil8 {fill:#212121;fill-rule:nonzero}
    .fil7 {fill:#37474F;fill-rule:nonzero}
    .fil5 {fill:#6D4C41;fill-rule:nonzero}
    .fil6 {fill:#A1887F;fill-rule:nonzero}
   ]]>
  </style>
   <clipPath id="id0">
    <path d="M1024 0c565.539,0 1024,458.461 1024,1024 0,565.539 -458.461,1024 -1024,1024 -565.539,0 -1024,-458.461 -1024,-1024 0,-565.539 458.461,-1024 1024,-1024z"/>
   </clipPath>
 </defs>
 <g id="Layer_x0020_1">
  <metadata id="CorelCorpID_0Corel-Layer"/>
  <path class="fil0" d="M1024 0c565.539,0 1024,458.461 1024,1024 0,565.539 -458.461,1024 -1024,1024 -565.539,0 -1024,-458.461 -1024,-1024 0,-565.539 458.461,-1024 1024,-1024z"/>
  <g style="clip-path:url(#id0)">
   <g id="_341212816">
    <g>
     <polygon id="_3384359761" class="fil1" points="1291.66,464 2427.54,1599.88 2464.21,1736.76 1328.33,600.874 "/>
     <polygon id="_338435832" class="fil1" points="1328.33,600.874 2464.21,1736.76 2470.12,1758.81 1334.24,622.924 "/>
     <polygon id="_338436888" class="fil1" points="1334.24,622.924 2470.12,1758.81 2448.04,1764.72 1312.16,628.841 "/>
     <polygon id="_338436936" class="fil1" points="1219.36,591.289 2355.24,1727.17 2353.61,1726.51 2351.98,1725.85 2350.34,1725.2 2348.71,1724.55 2347.06,1723.91 2345.42,1723.28 2343.78,1722.65 2342.13,1722.03 2340.48,1721.41 2338.83,1720.8 2337.18,1720.2 2335.53,1719.6 2333.87,1719.01 2332.21,1718.42 2330.55,1717.84 2328.89,1717.27 2327.23,1716.7 2325.56,1716.13 2323.89,1715.58 2322.22,1715.03 2320.55,1714.48 2318.87,1713.94 2317.2,1713.41 2315.52,1712.88 2313.84,1712.36 2312.16,1711.85 2310.47,1711.34 2308.79,1710.84 2307.1,1710.34 2305.41,1709.85 2303.72,1709.37 2302.03,1708.89 1166.15,573.005 1167.84,573.484 1169.53,573.968 1171.22,574.459 1172.91,574.955 1174.59,575.458 1176.28,575.966 1177.96,576.481 1179.64,577.002 1181.32,577.529 1182.99,578.061 1184.67,578.6 1186.34,579.145 1188.01,579.695 1189.68,580.252 1191.34,580.815 1193.01,581.383 1194.67,581.958 1196.33,582.538 1197.99,583.125 1199.65,583.718 1201.3,584.315 1202.95,584.92 1204.6,585.531 1206.25,586.146 1207.9,586.769 1209.54,587.397 1211.18,588.03 1212.82,588.67 1214.46,589.316 1216.1,589.968 1217.73,590.625 "/>
     <polygon id="_338436816" class="fil1" points="1166.15,573.005 2302.03,1708.89 2298,1707.77 2293.95,1706.69 2289.9,1705.65 2285.84,1704.64 2281.76,1703.66 2277.68,1702.72 2273.59,1701.81 2269.49,1700.94 2265.38,1700.1 2261.26,1699.3 2257.14,1698.54 2253.01,1697.8 2248.87,1697.11 2244.72,1696.44 2240.56,1695.82 2236.4,1695.23 2232.24,1694.67 2228.06,1694.15 2223.88,1693.66 2219.69,1693.21 2215.5,1692.8 2211.3,1692.42 2207.1,1692.08 2202.89,1691.77 2198.67,1691.5 2194.45,1691.27 2190.23,1691.07 2186,1690.91 2181.77,1690.78 2177.53,1690.69 2173.29,1690.63 2169.05,1690.61 1033.17,554.732 1037.41,554.75 1041.65,554.804 1045.89,554.895 1050.12,555.023 1054.35,555.186 1058.57,555.384 1062.79,555.619 1067.01,555.891 1071.21,556.197 1075.42,556.539 1079.62,556.919 1083.81,557.332 1088,557.782 1092.18,558.267 1096.35,558.787 1100.52,559.343 1104.68,559.935 1108.84,560.561 1112.99,561.224 1117.13,561.921 1121.26,562.653 1125.38,563.419 1129.5,564.222 1133.61,565.059 1137.71,565.932 1141.8,566.837 1145.88,567.779 1149.95,568.756 1154.02,569.767 1158.07,570.812 1162.12,571.891 "/>
     <polygon id="_338436768" class="fil1" points="1312.16,628.841 2448.04,1764.72 2313.43,1800.79 1177.54,664.91 "/>
     <polygon id="_338436576" class="fil1" points="1033.17,554.732 2169.05,1690.61 2156.36,1690.78 2143.75,1691.25 2131.21,1692.05 2118.77,1693.15 2106.42,1694.57 2094.16,1696.28 2082,1698.3 2069.94,1700.61 2057.99,1703.21 2046.15,1706.1 2034.42,1709.27 2022.82,1712.72 2011.33,1716.45 1999.97,1720.45 1988.73,1724.72 1977.63,1729.26 1966.67,1734.05 1955.85,1739.11 1945.17,1744.41 1934.65,1749.97 1924.27,1755.77 1914.05,1761.81 1904,1768.09 1894.1,1774.6 1884.37,1781.34 1874.82,1788.31 1865.44,1795.5 1856.24,1802.91 1847.23,1810.53 1838.4,1818.36 1829.76,1826.4 1821.32,1834.65 685.441,698.764 693.883,690.521 702.52,682.482 711.348,674.649 720.363,667.026 729.562,659.617 738.94,652.427 748.493,645.459 758.22,638.717 768.114,632.204 778.172,625.926 788.39,619.884 798.765,614.085 809.293,608.53 819.969,603.225 830.79,598.172 841.752,593.377 852.852,588.843 864.085,584.572 875.447,580.57 886.934,576.84 898.543,573.388 910.27,570.214 922.111,567.325 934.063,564.723 946.119,562.413 958.279,560.398 970.537,558.683 982.891,557.272 995.333,556.166 1007.86,555.372 1020.48,554.893 "/>
     <polygon id="_338436960" class="fil1" points="685.441,698.764 1821.32,1834.65 1813.08,1843.09 1805.04,1851.73 1797.21,1860.55 1789.58,1869.57 1782.17,1878.77 1774.99,1888.14 1768.02,1897.7 1761.28,1907.43 1754.76,1917.32 1748.48,1927.38 1742.44,1937.6 1736.64,1947.97 1731.09,1958.5 1725.78,1969.17 1720.73,1980 1715.94,1990.96 1711.4,2002.06 1707.13,2013.29 1703.13,2024.65 1699.4,2036.14 1695.95,2047.75 1692.77,2059.47 1689.88,2071.32 1687.28,2083.27 1684.97,2095.32 1682.96,2107.48 1681.24,2119.74 1679.83,2132.09 1678.72,2144.54 1677.93,2157.07 1677.45,2169.68 1677.29,2182.38 541.409,1046.49 541.57,1033.8 542.05,1021.19 542.843,1008.66 543.949,996.212 545.36,983.859 547.075,971.602 549.09,959.442 551.4,947.384 554.002,935.434 556.891,923.592 560.065,911.865 563.517,900.256 567.247,888.768 571.249,877.407 575.52,866.174 580.054,855.075 584.849,844.113 589.902,833.292 595.208,822.616 600.762,812.088 606.561,801.713 612.603,791.495 618.882,781.437 625.394,771.543 632.136,761.816 639.104,752.262 646.294,742.884 653.703,733.686 661.326,724.671 669.159,715.843 677.199,707.206 "/>
     <polygon id="_338436408" class="fil1" points="541.409,1046.49 1677.29,2182.38 1677.45,2195.07 1677.93,2207.68 1678.72,2220.21 1679.83,2232.66 1681.24,2245.01 1682.96,2257.27 1684.97,2269.43 1687.28,2281.48 1689.88,2293.44 1692.77,2305.28 1695.95,2317 1699.4,2328.61 1703.13,2340.1 1707.13,2351.46 1711.4,2362.69 1715.94,2373.79 1720.73,2384.76 1725.78,2395.58 1731.09,2406.25 1736.64,2416.78 1742.44,2427.16 1748.48,2437.37 1754.76,2447.43 1761.28,2457.33 1768.02,2467.05 1774.99,2476.61 1782.17,2485.98 1789.58,2495.18 1797.21,2504.2 1805.04,2513.03 1813.08,2521.66 1821.32,2530.11 685.441,1394.22 677.199,1385.78 669.159,1377.14 661.326,1368.32 653.703,1359.3 646.294,1350.1 639.104,1340.72 632.136,1331.17 625.394,1321.44 618.882,1311.55 612.603,1301.49 606.561,1291.27 600.762,1280.9 595.208,1270.37 589.902,1259.7 584.849,1248.87 580.054,1237.91 575.52,1226.81 571.249,1215.58 567.247,1204.22 563.517,1192.73 560.065,1181.12 556.891,1169.39 554.002,1157.55 551.4,1145.6 549.09,1133.54 547.075,1121.39 545.36,1109.13 543.949,1096.77 542.843,1084.33 542.05,1071.8 541.57,1059.19 "/>
     <polygon id="_338436504" class="fil1" points="685.441,1394.22 1821.32,2530.11 1829.76,2538.35 1838.4,2546.39 1847.23,2554.22 711.348,1418.34 702.52,1410.51 693.883,1402.47 "/>
     <polygon id="_338437560" class="fil1" points="1259.76,1313.85 2395.64,2449.73 2396.59,2450.7 2397.51,2451.69 2398.41,2452.71 2399.28,2453.74 2400.13,2454.8 2400.96,2455.87 2401.76,2456.97 2402.53,2458.08 2403.28,2459.22 2404,2460.38 2404.69,2461.55 2405.36,2462.74 2405.99,2463.95 2406.6,2465.17 2407.18,2466.41 2407.73,2467.67 2408.25,2468.94 2408.74,2470.23 2409.2,2471.54 2409.63,2472.86 2410.03,2474.19 2410.39,2475.53 2410.72,2476.89 2411.02,2478.26 2411.29,2479.65 2411.52,2481.04 2411.71,2482.45 2411.88,2483.87 2412,2485.29 2412.09,2486.73 2412.15,2488.18 2412.17,2489.63 1276.29,1353.75 1276.27,1352.3 1276.21,1350.85 1276.12,1349.41 1275.99,1347.98 1275.83,1346.57 1275.64,1345.16 1275.4,1343.76 1275.14,1342.38 1274.84,1341.01 1274.51,1339.65 1274.14,1338.3 1273.75,1336.97 1273.32,1335.66 1272.86,1334.35 1272.37,1333.06 1271.85,1331.79 1271.3,1330.53 1270.72,1329.29 1270.11,1328.06 1269.48,1326.86 1268.81,1325.67 1268.12,1324.49 1267.4,1323.34 1266.65,1322.2 1265.88,1321.09 1265.08,1319.99 1264.25,1318.91 1263.4,1317.86 1262.53,1316.82 1261.63,1315.81 1260.7,1314.82 "/>
     <polygon id="_338437824" class="fil1" points="965.955,1312.56 2101.84,2448.44 2102.29,2448.87 2102.73,2449.3 2103.17,2449.73 967.292,1313.85 966.851,1313.42 966.405,1312.98 "/>
     <polygon id="_338437536" class="fil1" points="1033.17,1584 2169.05,2719.88 2155.18,2719.71 2141.39,2719.18 2127.7,2718.32 2114.1,2717.11 2100.59,2715.56 2087.2,2713.69 2073.91,2711.49 2060.73,2708.96 2047.66,2706.12 2034.72,2702.96 2021.9,2699.49 2009.21,2695.72 1996.66,2691.64 1984.24,2687.27 1971.96,2682.6 1959.83,2677.64 1947.85,2672.4 1936.02,2666.88 1924.35,2661.08 1912.85,2655.01 1901.51,2648.67 1890.34,2642.07 1879.34,2635.2 1868.53,2628.08 1857.9,2620.71 1847.45,2613.1 1837.2,2605.24 1827.15,2597.14 1817.3,2588.81 681.414,1452.93 691.268,1461.26 701.323,1469.36 711.573,1477.22 722.017,1484.83 732.647,1492.2 743.462,1499.32 754.456,1506.18 765.624,1512.79 776.965,1519.13 788.471,1525.2 800.141,1531 811.968,1536.52 823.951,1541.76 836.082,1546.72 848.359,1551.38 860.779,1555.76 873.334,1559.83 886.024,1563.61 898.841,1567.08 911.783,1570.24 924.845,1573.08 938.024,1575.6 951.315,1577.81 964.713,1579.68 978.215,1581.22 991.816,1582.43 1005.51,1583.3 1019.3,1583.82 "/>
     <polygon id="_338437080" class="fil1" points="967.292,1313.85 2103.17,2449.73 2104.12,2450.7 2105.04,2451.69 2105.94,2452.71 2106.82,2453.74 2107.66,2454.8 2108.49,2455.87 2109.29,2456.97 2110.06,2458.08 2110.81,2459.22 2111.53,2460.38 2112.22,2461.55 2112.89,2462.74 2113.53,2463.95 2114.14,2465.17 2114.72,2466.41 2115.27,2467.67 2115.79,2468.94 2116.28,2470.23 2116.74,2471.54 2117.16,2472.86 2117.56,2474.19 2117.92,2475.53 2118.26,2476.89 2118.55,2478.26 2118.82,2479.65 2119.05,2481.04 2119.25,2482.45 2119.41,2483.87 2119.54,2485.29 2119.63,2486.73 2119.68,2488.18 2119.7,2489.63 983.82,1353.75 983.801,1352.3 983.747,1350.85 983.656,1349.41 983.528,1347.98 983.367,1346.57 983.169,1345.16 982.939,1343.76 982.673,1342.38 982.376,1341.01 982.044,1339.65 981.679,1338.3 981.283,1336.97 980.855,1335.66 980.396,1334.35 979.906,1333.06 979.385,1331.79 978.835,1330.53 978.255,1329.29 977.646,1328.06 977.009,1326.86 976.344,1325.67 975.65,1324.49 974.93,1323.34 974.182,1322.2 973.409,1321.09 972.609,1319.99 971.783,1318.91 970.934,1317.86 970.059,1316.82 969.16,1315.81 968.238,1314.82 "/>
     <polygon id="_338437128" class="fil1" points="983.82,1353.75 2119.7,2489.63 2119.68,2491.09 2119.63,2492.54 2119.54,2493.98 2119.41,2495.4 2119.25,2496.82 2119.05,2498.23 2118.82,2499.62 2118.55,2501.01 2118.26,2502.38 2117.92,2503.74 2117.56,2505.08 2117.16,2506.41 2116.74,2507.73 2116.28,2509.03 2115.79,2510.32 2115.27,2511.6 2114.72,2512.86 2114.14,2514.1 2113.53,2515.32 2112.89,2516.53 2112.22,2517.72 2111.53,2518.89 2110.81,2520.05 2110.06,2521.18 2109.29,2522.3 2108.49,2523.4 2107.66,2524.47 2106.81,2525.53 2105.94,2526.56 2105.04,2527.58 2104.12,2528.57 2103.17,2529.53 967.291,1393.65 968.237,1392.68 969.159,1391.69 970.058,1390.68 970.933,1389.64 971.783,1388.59 972.608,1387.51 973.409,1386.42 974.182,1385.3 974.929,1384.16 975.65,1383.01 976.344,1381.84 977.009,1380.65 977.646,1379.44 978.255,1378.21 978.835,1376.97 979.385,1375.71 979.906,1374.44 980.396,1373.15 980.854,1371.85 981.283,1370.53 981.679,1369.2 982.044,1367.85 982.374,1366.49 982.673,1365.12 982.939,1363.74 983.169,1362.34 983.367,1360.94 983.528,1359.52 983.656,1358.09 983.747,1356.66 983.801,1355.21 "/>
     <polygon id="_338437200" class="fil1" points="967.291,1393.65 2103.17,2529.53 2102.2,2530.48 2101.21,2531.4 2100.2,2532.3 2099.16,2533.18 2098.11,2534.03 2097.03,2534.85 2095.94,2535.65 2094.82,2536.43 2093.69,2537.17 2092.53,2537.89 2091.36,2538.59 2090.17,2539.25 2088.96,2539.89 2087.74,2540.5 2086.49,2541.08 2085.24,2541.63 2083.96,2542.15 2082.67,2542.64 2081.37,2543.1 2080.05,2543.52 2078.72,2543.92 2077.37,2544.29 2076.02,2544.62 2074.64,2544.91 2073.26,2545.18 2071.87,2545.41 2070.46,2545.61 2069.04,2545.77 2067.61,2545.9 2066.18,2545.99 2064.73,2546.04 2063.27,2546.06 927.392,1410.18 928.848,1410.16 930.295,1410.11 931.732,1410.02 933.16,1409.89 934.577,1409.73 935.984,1409.53 937.379,1409.3 938.763,1409.03 940.135,1408.73 941.493,1408.4 942.838,1408.04 944.17,1407.64 945.489,1407.21 946.792,1406.76 948.081,1406.27 949.354,1405.74 950.612,1405.19 951.855,1404.62 953.079,1404.01 954.288,1403.37 955.477,1402.7 956.65,1402.01 957.804,1401.29 958.94,1400.54 960.055,1399.77 961.152,1398.97 962.228,1398.14 963.283,1397.29 964.318,1396.42 965.331,1395.52 966.322,1394.6 "/>
     <polygon id="_338437656" class="fil1" points="927.392,1410.18 2063.27,2546.06 2061.82,2546.04 2060.37,2545.99 2058.93,2545.9 2057.5,2545.77 2056.09,2545.61 2054.68,2545.41 2053.28,2545.18 2051.9,2544.91 2050.53,2544.62 2049.17,2544.29 2047.83,2543.92 2046.49,2543.52 2045.18,2543.1 2043.87,2542.64 2042.58,2542.15 2041.31,2541.63 2040.05,2541.08 2038.81,2540.5 2037.59,2539.89 2036.38,2539.25 2035.19,2538.59 2034.01,2537.89 2032.86,2537.17 2031.72,2536.43 2030.61,2535.65 2029.51,2534.85 2028.44,2534.03 2027.38,2533.18 2026.35,2532.3 2025.33,2531.4 889.451,1395.52 890.464,1396.42 891.499,1397.29 892.555,1398.14 893.631,1398.97 894.727,1399.77 895.843,1400.54 896.978,1401.29 898.132,1402.01 899.305,1402.7 900.496,1403.37 901.704,1404.01 902.929,1404.62 904.17,1405.19 905.428,1405.74 906.702,1406.27 907.991,1406.76 909.295,1407.21 910.613,1407.64 911.944,1408.04 913.29,1408.4 914.649,1408.73 916.02,1409.03 917.403,1409.3 918.799,1409.53 920.205,1409.73 921.623,1409.89 923.05,1410.02 924.489,1410.11 925.935,1410.16 "/>
     <polygon id="_338437392" class="fil1" points="1276.29,1353.75 2412.17,2489.63 2412.15,2491.09 2412.09,2492.54 2412,2493.98 2411.88,2495.4 2411.71,2496.82 2411.52,2498.23 2411.29,2499.62 2411.02,2501.01 2410.72,2502.38 2410.39,2503.74 2410.03,2505.08 2409.63,2506.41 2409.2,2507.73 2408.74,2509.03 2408.25,2510.32 2407.73,2511.6 2407.18,2512.86 2406.6,2514.1 2405.99,2515.32 2405.36,2516.53 2404.69,2517.72 2404,2518.89 2403.28,2520.05 2402.53,2521.18 2401.76,2522.3 2400.96,2523.4 2400.13,2524.47 2399.28,2525.53 2398.41,2526.56 2397.51,2527.58 2396.58,2528.57 2395.64,2529.53 1259.76,1393.65 1260.7,1392.68 1261.63,1391.69 1262.52,1390.68 1263.4,1389.64 1264.25,1388.59 1265.07,1387.51 1265.87,1386.42 1266.65,1385.3 1267.4,1384.16 1268.12,1383.01 1268.81,1381.84 1269.47,1380.65 1270.11,1379.44 1270.72,1378.21 1271.3,1376.97 1271.85,1375.71 1272.37,1374.44 1272.86,1373.15 1273.32,1371.85 1273.75,1370.53 1274.14,1369.2 1274.51,1367.85 1274.84,1366.49 1275.14,1365.12 1275.4,1363.74 1275.64,1362.34 1275.83,1360.94 1275.99,1359.52 1276.12,1358.09 1276.21,1356.66 1276.27,1355.21 "/>
     <polygon id="_338437440" class="fil1" points="1552.34,1185.59 2688.22,2321.47 2685.16,2332.43 2681.88,2343.28 2678.39,2354.03 2674.69,2364.66 2670.77,2375.18 2666.65,2385.59 2662.33,2395.88 2657.81,2406.04 2653.09,2416.09 2648.17,2426.01 2643.07,2435.81 2637.77,2445.48 2632.28,2455.02 2626.61,2464.43 2620.76,2473.7 2614.73,2482.84 2608.53,2491.84 2602.15,2500.7 2595.6,2509.42 2588.88,2517.99 2582,2526.41 2574.96,2534.69 2567.75,2542.81 2560.39,2550.79 2552.88,2558.6 2545.21,2566.26 2537.4,2573.76 2529.44,2581.1 2521.33,2588.28 2513.09,2595.29 2504.71,2602.13 2496.19,2608.8 1360.31,1472.92 1368.83,1466.25 1377.21,1459.4 1385.45,1452.39 1393.56,1445.22 1401.52,1437.88 1409.33,1430.38 1417,1422.72 1424.51,1414.9 1431.87,1406.93 1439.08,1398.81 1446.12,1390.53 1453,1382.11 1459.72,1373.53 1466.27,1364.82 1472.65,1355.96 1478.85,1346.96 1484.88,1337.82 1490.73,1328.55 1496.4,1319.14 1501.89,1309.6 1507.18,1299.93 1512.29,1290.13 1517.21,1280.21 1521.93,1270.16 1526.45,1259.99 1530.77,1249.71 1534.89,1239.3 1538.8,1228.78 1542.51,1218.15 1546,1207.4 1549.28,1196.55 "/>
     <polygon id="_338437752" class="fil1" points="1259.76,1393.65 2395.64,2529.53 2394.67,2530.48 2393.68,2531.4 2392.67,2532.3 2391.63,2533.18 2390.58,2534.03 2389.5,2534.85 2388.4,2535.65 2387.29,2536.43 2386.15,2537.17 2385,2537.89 2383.83,2538.59 2382.63,2539.25 2381.43,2539.89 2380.2,2540.5 2378.96,2541.08 2377.7,2541.63 2376.43,2542.15 2375.14,2542.64 2373.84,2543.1 2372.52,2543.52 2371.19,2543.92 2369.84,2544.29 2368.48,2544.62 2367.11,2544.91 2365.73,2545.18 2364.33,2545.41 2362.92,2545.61 2361.51,2545.77 2360.08,2545.9 2358.64,2545.99 2357.2,2546.04 2355.74,2546.06 1219.86,1410.18 1221.31,1410.16 1222.76,1410.11 1224.2,1410.02 1225.63,1409.89 1227.04,1409.73 1228.45,1409.53 1229.85,1409.3 1231.23,1409.03 1232.6,1408.73 1233.96,1408.4 1235.3,1408.04 1236.64,1407.64 1237.95,1407.21 1239.26,1406.76 1240.55,1406.27 1241.82,1405.74 1243.08,1405.19 1244.32,1404.62 1245.55,1404.01 1246.75,1403.37 1247.94,1402.7 1249.12,1402.01 1250.27,1401.29 1251.41,1400.54 1252.52,1399.77 1253.62,1398.97 1254.69,1398.14 1255.75,1397.29 1256.78,1396.42 1257.8,1395.52 1258.79,1394.6 "/>
     <polygon id="_338437920" class="fil1" points="1219.86,1410.18 2355.74,2546.06 2354.28,2546.04 2352.84,2545.99 2351.4,2545.9 2349.97,2545.77 2348.55,2545.61 2347.15,2545.41 2345.75,2545.18 2344.37,2544.91 2343,2544.62 2341.64,2544.29 2340.29,2543.92 2338.96,2543.52 2337.64,2543.1 2336.34,2542.64 2335.05,2542.15 2333.78,2541.63 2332.52,2541.08 2331.28,2540.5 2330.05,2539.89 2328.84,2539.25 2327.65,2538.59 2326.48,2537.89 2325.33,2537.17 2324.19,2536.43 2323.07,2535.65 2321.98,2534.85 2320.9,2534.03 2319.85,2533.18 2318.81,2532.3 2317.8,2531.4 2316.81,2530.48 1180.93,1394.6 1181.92,1395.52 1182.93,1396.42 1183.97,1397.29 1185.02,1398.14 1186.1,1398.97 1187.19,1399.77 1188.31,1400.54 1189.44,1401.29 1190.6,1402.01 1191.77,1402.7 1192.96,1403.37 1194.17,1404.01 1195.39,1404.62 1196.64,1405.19 1197.9,1405.74 1199.17,1406.27 1200.46,1406.76 1201.76,1407.21 1203.08,1407.64 1204.41,1408.04 1205.76,1408.4 1207.11,1408.73 1208.49,1409.03 1209.87,1409.3 1211.27,1409.53 1212.67,1409.73 1214.09,1409.89 1215.52,1410.02 1216.95,1410.11 1218.4,1410.16 "/>
     <polygon id="_338438472" class="fil1" points="1360.31,1472.92 2496.19,2608.8 2487.54,2615.3 2478.77,2621.62 2469.87,2627.77 2460.84,2633.74 2451.7,2639.52 2442.43,2645.13 2433.05,2650.55 2423.56,2655.78 2413.96,2660.83 2404.25,2665.68 2394.43,2670.34 2384.52,2674.81 2374.5,2679.08 2364.39,2683.15 2354.19,2687.01 2343.89,2690.68 2333.51,2694.13 2323.04,2697.38 2312.49,2700.42 2301.86,2703.25 2291.15,2705.87 2280.37,2708.26 2269.51,2710.44 2258.59,2712.4 2247.6,2714.14 2236.55,2715.65 2225.43,2716.93 2214.26,2717.99 2203.04,2718.81 2191.76,2719.41 2180.43,2719.76 2169.05,2719.88 1033.17,1584 1044.55,1583.88 1055.88,1583.52 1067.15,1582.93 1078.38,1582.11 1089.55,1581.05 1100.67,1579.77 1111.72,1578.26 1122.71,1576.52 1133.63,1574.56 1144.48,1572.38 1155.27,1569.98 1165.98,1567.37 1176.61,1564.54 1187.16,1561.5 1197.63,1558.25 1208.01,1554.79 1218.31,1551.13 1228.51,1547.26 1238.62,1543.2 1248.64,1538.93 1258.55,1534.46 1268.37,1529.8 1278.08,1524.95 1287.68,1519.9 1297.17,1514.67 1306.55,1509.25 1315.82,1503.64 1324.96,1497.85 1333.99,1491.89 1342.89,1485.74 1351.66,1479.41 "/>
     <polygon id="_338438232" class="fil1" points="1498.34,668.054 2634.22,1803.94 2634.22,1898.03 1498.34,762.148 "/>
     <polygon id="_338438088" class="fil1" points="1516.75,762.148 2652.63,1898.03 2652.63,1923.03 1516.75,787.147 "/>
     <polygon id="_338438352" class="fil1" points="1516.75,787.147 2652.63,1923.03 2634.22,1923.03 1498.34,787.147 "/>
     <polygon id="_338438568" class="fil1" points="1362.85,697.407 2498.73,1833.29 2498.11,1832.63 2497.45,1832.01 2496.77,1831.43 2496.05,1830.89 2495.31,1830.39 2494.53,1829.93 2493.72,1829.51 2492.88,1829.13 2492.02,1828.79 2491.12,1828.49 2490.19,1828.24 2489.23,1828.02 2488.25,1827.84 2487.23,1827.7 2486.18,1827.6 2485.1,1827.54 2483.99,1827.52 2482.89,1827.54 2481.82,1827.6 2480.78,1827.71 2479.76,1827.86 2478.78,1828.04 2477.82,1828.28 2476.9,1828.55 2476,1828.86 2475.13,1829.22 2474.29,1829.62 2473.48,1830.05 2472.69,1830.54 2471.93,1831.06 2471.2,1831.62 2470.5,1832.23 2469.83,1832.87 1333.95,696.99 1334.62,696.344 1335.32,695.738 1336.05,695.175 1336.81,694.653 1337.6,694.172 1338.41,693.733 1339.25,693.336 1340.12,692.979 1341.02,692.665 1341.94,692.393 1342.9,692.162 1343.88,691.974 1344.89,691.827 1345.94,691.721 1347.01,691.659 1348.1,691.638 1349.22,691.658 1350.3,691.717 1351.35,691.816 1352.36,691.955 1353.35,692.135 1354.31,692.353 1355.24,692.612 1356.14,692.911 1357,693.25 1357.84,693.629 1358.65,694.048 1359.42,694.508 1360.17,695.008 1360.89,695.548 1361.57,696.128 1362.23,696.749 "/>
     <polygon id="_338437896" class="fil1" points="1333.95,696.99 2469.83,1832.87 2469.19,1833.57 2468.59,1834.33 2468.02,1835.14 2467.49,1836.01 2466.98,1836.93 2466.52,1837.9 2466.09,1838.93 2465.69,1840.02 2465.33,1841.16 2465,1842.36 2464.7,1843.61 2464.44,1844.92 2464.22,1846.28 2464.03,1847.69 2463.87,1849.16 2463.75,1850.69 1327.87,714.807 1327.99,713.281 1328.15,711.81 1328.34,710.393 1328.56,709.033 1328.82,707.727 1329.12,706.475 1329.45,705.279 1329.81,704.137 1330.21,703.052 1330.64,702.021 1331.1,701.045 1331.6,700.124 1332.14,699.258 1332.71,698.447 1333.31,697.691 "/>
     <polygon id="_338438184" class="fil1" points="1386.26,682.953 2522.14,1818.84 2523.47,1820.43 2524.69,1822.07 2525.82,1823.75 2526.84,1825.48 2527.77,1827.25 2528.61,1829.07 2529.34,1830.93 2529.98,1832.84 2530.52,1834.79 2530.96,1836.79 2531.3,1838.83 2531.54,1840.92 2531.69,1843.05 2531.74,1845.23 2531.73,1846.48 2531.68,1847.72 2531.61,1848.95 2531.52,1850.17 2531.39,1851.39 2531.23,1852.6 2531.05,1853.8 2530.84,1855 2530.6,1856.19 2530.33,1857.37 2530.04,1858.54 2529.72,1859.7 2529.37,1860.86 2528.99,1862.01 2528.58,1863.16 2528.15,1864.29 2527.69,1865.43 2527.19,1866.57 2526.66,1867.72 2526.1,1868.88 2525.5,1870.04 2524.87,1871.21 2524.21,1872.38 2523.52,1873.57 2522.79,1874.75 2522.03,1875.95 2521.24,1877.15 2520.41,1878.36 2519.56,1879.57 2518.67,1880.79 2517.74,1882.02 2516.79,1883.25 1380.91,747.369 1381.86,746.136 1382.78,744.909 1383.67,743.689 1384.53,742.475 1385.36,741.267 1386.15,740.066 1386.91,738.871 1387.64,737.683 1388.33,736.502 1388.99,735.327 1389.62,734.158 1390.22,732.996 1390.78,731.84 1391.31,730.691 1391.81,729.549 1392.27,728.412 1392.7,727.276 1393.11,726.132 1393.48,724.98 1393.84,723.821 1394.16,722.656 1394.45,721.483 1394.72,720.303 1394.96,719.115 1395.17,717.921 1395.35,716.718 1395.51,715.509 1395.63,714.292 1395.73,713.067 1395.8,711.837 1395.85,710.598 1395.86,709.352 1395.81,707.173 1395.66,705.04 1395.42,702.951 1395.08,700.908 1394.64,698.911 1394.1,696.958 1393.46,695.05 1392.73,693.187 1391.89,691.369 1390.96,689.597 1389.94,687.869 1388.81,686.186 1387.58,684.546 "/>
     <polygon id="_338438016" class="fil1" points="1327.87,714.807 2463.75,1850.69 2435.44,1847.86 1299.55,711.976 "/>
     <polygon id="_338438616" class="fil1" points="1362.3,766.292 2498.18,1902.17 2496.53,1903.68 2494.96,1905.13 2493.47,1906.51 2492.06,1907.82 2490.72,1909.08 2489.46,1910.26 2488.28,1911.39 2487.18,1912.45 2486.15,1913.44 2485.2,1914.37 2484.32,1915.23 2483.53,1916.03 2482.81,1916.77 2482.17,1917.43 2481.61,1918.04 2481.12,1918.58 2480.25,1919.58 2479.41,1920.58 2478.62,1921.58 2477.87,1922.56 2477.16,1923.54 2476.49,1924.52 2475.86,1925.49 2475.28,1926.45 1339.4,790.566 1339.98,789.604 1340.61,788.637 1341.27,787.662 1341.98,786.681 1342.74,785.694 1343.53,784.7 1344.36,783.7 1345.24,782.694 1345.72,782.156 1346.29,781.553 1346.93,780.884 1347.65,780.149 1348.44,779.351 1349.32,778.486 1350.27,777.558 1351.29,776.564 1352.4,775.505 1353.58,774.382 1354.84,773.195 1356.18,771.942 1357.59,770.626 1359.08,769.245 1360.65,767.801 "/>
     <polygon id="_338438688" class="fil1" points="1380.91,747.369 2516.79,1883.25 2516.11,1884.1 2515.36,1884.99 2514.55,1885.92 2513.68,1886.9 2512.74,1887.93 2511.74,1889 2510.67,1890.11 2509.54,1891.28 2508.35,1892.48 2507.09,1893.73 2505.76,1895.03 2504.37,1896.37 2502.92,1897.75 2501.4,1899.18 2499.82,1900.66 2498.18,1902.17 1362.3,766.292 1363.94,764.773 1365.52,763.299 1367.04,761.869 1368.49,760.484 1369.88,759.145 1371.2,757.849 1372.46,756.598 1373.66,755.393 1374.79,754.232 1375.86,753.116 1376.86,752.046 1377.8,751.02 1378.67,750.04 1379.48,749.104 1380.23,748.214 "/>
     <polygon id="_338439144" class="fil1" points="1470.82,787.147 2606.7,1923.03 2546,1923.03 1410.12,787.147 "/>
     <polygon id="_338439264" class="fil1" points="1395.86,790.566 2531.74,1926.45 2531.74,1952.86 1395.86,816.981 "/>
     <polygon id="_338438832" class="fil1" points="1498.34,816.981 2634.22,1952.86 2606.7,1952.86 1470.82,816.981 "/>
     <polygon id="_338439096" class="fil1" points="1498.34,787.147 2634.22,1923.03 2634.22,1952.86 1498.34,816.981 "/>
     <polygon id="_338438736" class="fil1" points="1395.86,816.981 2531.74,1952.86 2432.09,1952.86 1296.21,816.981 "/>
    </g>
    <path id="_341212456" class="fil1" d="M1033.17 508.986c49.2485,0 98.1284,6.8126 145.309,20.061 21.6166,6.07087 42.8587,13.5 63.5953,22.2508l49.5839 -87.2977 36.6744 136.875 5.90788 22.05 -22.0795 5.91615 -134.617 36.0697 41.8158 -73.6217c-17.3835,-7.10788 -35.1508,-13.2118 -53.2111,-18.2835 -42.9744,-12.0673 -87.7052,-18.2728 -132.978,-18.2728 -135.8,0 -258.741,55.0418 -347.73,144.032 -88.9902,88.989 -144.032,211.93 -144.032,347.729 0,135.8 55.0418,258.741 144.032,347.73 88.989,88.989 211.93,144.032 347.73,144.032 111.345,0 215.72,-37.3701 299.44,-101.611 83.6894,-64.2189 146.78,-155.335 175.589,-262.85l44.1366 11.7933c-31.4752,117.473 -100.474,217.079 -192.028,287.331 -91.5237,70.2296 -205.558,111.083 -327.137,111.083 -148.427,0 -282.805,-60.163 -380.073,-157.434 -97.2709,-97.2686 -157.435,-231.647 -157.435,-380.073 0,-148.426 60.1642,-282.803 157.435,-380.072 97.2686,-97.2709 231.646,-157.435 380.073,-157.435zm-69.5375 801.514c1.2685,1.06299 2.48858,2.1815 3.65788,3.35079 10.2118,10.213 16.5284,24.3201 16.5284,39.9012 0,15.5799 -6.31654,29.687 -16.5295,39.9 -10.2106,10.2106 -24.3189,16.5272 -39.8988,16.5272 -15.5811,0 -29.6882,-6.31654 -39.9,-16.5272 -10.213,-10.213 -16.5295,-24.3201 -16.5295,-39.9 0,-15.5811 6.31654,-29.6882 16.5295,-39.9012 1.16929,-1.16929 2.38937,-2.2878 3.6567,-3.35079l72.4855 0zm292.467 0c1.2685,1.06299 2.48858,2.1815 3.65788,3.35079 10.2106,10.213 16.5272,24.3201 16.5272,39.9012 0,15.5799 -6.31654,29.687 -16.5284,39.9 -10.2118,10.2106 -24.3201,16.5272 -39.9,16.5272 -15.5799,0 -29.6882,-6.31654 -39.9,-16.5272 -10.2118,-10.213 -16.5284,-24.3201 -16.5284,-39.9 0,-15.5811 6.31654,-29.6882 16.5284,-39.9012 1.16929,-1.16929 2.38937,-2.2878 3.6567,-3.35079l72.4867 0zm218.382 -642.446l23.8595 0 0 94.0938 18.4051 0 0 24.9992 -18.4051 0 0 29.8335 -27.5197 0 0 -29.8335 -60.7028 0 0 -24.8953 64.363 -94.1977zm-78.6237 122.511l0 26.4154 -99.6532 0c1.10551,-9.97914 4.31693,-19.4398 9.73702,-28.3831 5.38701,-8.94213 16.0559,-20.7874 31.9406,-35.5654 12.8457,-11.9138 20.6835,-20.028 23.5843,-24.2752 3.9,-5.87008 5.8689,-11.6705 5.8689,-17.4024 0,-6.3189 -1.69134,-11.1886 -5.10945,-14.6055 -3.41929,-3.41929 -8.11536,-5.11181 -14.1236,-5.11181 -5.93859,0 -10.6347,1.79528 -14.1567,5.35276 -3.4878,3.59055 -5.5252,9.53032 -6.07678,17.8169l-28.3158 -2.8311c1.69252,-15.6414 6.9756,-26.8642 15.8847,-33.7016 8.90906,-6.80197 20.0268,-10.2201 33.3898,-10.2201 14.641,0 26.1402,3.96969 34.4953,11.8441 8.35631,7.90631 12.535,17.713 12.535,29.4532 0,6.66497 -1.20827,13.0169 -3.59174,19.0606 -2.38347,6.04252 -6.18071,12.3614 -11.361,18.9567 -3.45236,4.38544 -9.66733,10.7043 -18.6106,18.9225 -8.97638,8.21812 -14.6752,13.7079 -17.0575,16.402 -2.38229,2.69292 -4.35118,5.31733 -5.83583,7.87205l56.4567 0z"/>
   </g>
  </g>
  <path class="fil2" d="M1024 0c565.539,0 1024,458.461 1024,1024 0,565.539 -458.461,1024 -1024,1024 -565.539,0 -1024,-458.461 -1024,-1024 0,-565.539 458.461,-1024 1024,-1024z"/>
  <path class="fil3" d="M1552.34 1185.59c-31.4752,117.473 -100.474,217.079 -192.028,287.331 -91.5237,70.2296 -205.558,111.083 -327.137,111.083 -148.427,0 -282.805,-60.163 -380.073,-157.434 -97.2709,-97.2686 -157.435,-231.647 -157.435,-380.073 0,-148.426 60.1642,-282.803 157.435,-380.072 97.2686,-97.2709 231.646,-157.435 380.073,-157.435 49.2485,0 98.1284,6.8126 145.309,20.061 47.0552,13.2142 92.3304,32.8654 134.497,58.5756l-23.7662 38.9563c-38.5359,-23.4969 -79.9642,-41.4697 -123.062,-53.5737 -42.9744,-12.0673 -87.7052,-18.2728 -132.978,-18.2728 -135.8,0 -258.741,55.0418 -347.73,144.032 -88.9902,88.989 -144.032,211.93 -144.032,347.729 0,135.8 55.0418,258.741 144.032,347.73 88.989,88.989 211.93,144.032 347.73,144.032 111.345,0 215.72,-37.3701 299.44,-101.611 83.6894,-64.2189 146.78,-155.335 175.589,-262.85l44.1366 11.7933z"/>
  <polygon class="fil4" points="1291.66,464 1328.33,600.874 1334.24,622.924 1312.16,628.841 1177.54,664.91 "/>
  <path class="fil4" d="M1395.86 790.566l0 26.4154 -99.6532 0c1.10433,-9.97914 4.31575,-19.4398 9.73702,-28.3831 5.38701,-8.94331 16.0571,-20.7874 31.9406,-35.5654 12.8457,-11.9126 20.6835,-20.028 23.5831,-24.2752 3.90237,-5.87008 5.87008,-11.6705 5.87008,-17.4024 0,-6.3189 -1.69134,-11.1886 -5.10945,-14.6067 -3.41929,-3.41811 -8.11536,-5.11063 -14.1236,-5.11063 -5.93859,0 -10.6347,1.79528 -14.1567,5.35276 -3.4878,3.59055 -5.52402,9.53032 -6.07796,17.8169l-28.3146 -2.8311c1.69252,-15.6414 6.9756,-26.8642 15.8847,-33.7016 8.90906,-6.80197 20.0268,-10.2201 33.3898,-10.2201 14.641,0 26.1402,3.96969 34.4953,11.8441 8.35631,7.90631 12.535,17.713 12.535,29.4532 0,6.66497 -1.20827,13.0181 -3.59174,19.0606 -2.38229,6.04252 -6.18071,12.3614 -11.3599,18.9567 -3.45355,4.38544 -9.66851,10.7043 -18.6118,18.9225 -8.97757,8.21812 -14.6752,13.7079 -17.0575,16.402 -2.38347,2.69292 -4.35118,5.31733 -5.83583,7.87205l56.4567 0zm74.9634 26.4154l0 -29.8335 -60.7028 0 0 -24.8965 64.363 -94.1965 23.8595 0 0 94.0938 18.4051 0 0 24.9992 -18.4051 0 0 29.8335 -27.5197 0zm0 -54.8327l0 -50.6894 -34.0807 50.6894 34.0807 0z"/>
  <path class="fil5" d="M642.061 782.405c-8.57953,0 -15.5351,6.95552 -15.5351,15.5351 0,8.57953 6.95552,15.5351 15.5351,15.5351l101.874 0 26.9114 43.3949 76.8237 440.705 15.2917 -2.60906 -15.3036 2.66693c1.32756,7.61575 7.99253,12.9614 15.4807,12.8669l445.865 0c8.57953,0 15.5351,-6.95552 15.5351,-15.5339 0,-8.57953 -6.95552,-15.5351 -15.5351,-15.5351l-433.004 0 -10.6276 -60.9721 439.39 0c12.0921,0 22.5272,-4.82363 30.3189,-12.6154 7.73386,-7.73505 12.7181,-18.489 13.8567,-30.2256l23.0103 -237.008c0.155906,-1.60866 0.232677,-2.85473 0.232677,-3.7441 0,-11.2665 -4.85433,-21.3732 -12.4866,-28.8744 -7.22599,-7.10079 -17.1012,-11.8547 -27.6555,-12.8788 -1.75866,-0.168898 -3.19016,-0.257481 -4.26615,-0.257481l-519.161 0 -7.55079 -43.3111c-0.255118,-2.19921 -0.98504,-4.37953 -2.22992,-6.38741l-0.0496063 0.0318898 -32.3929 -52.2367c-2.55827,-5.0693 -7.81182,-8.54646 -13.8768,-8.54646l-110.451 0z"/>
  <path class="fil6" d="M941.657 1092.56l129.806 0 0 -65.6847 -129.806 0 0 65.6847zm280.71 0l0 -65.6847 -129.806 0 0 65.6847 129.806 0zm21.0992 -184.173l0 95.2772 106.061 0 -3.12047 23.211 -102.94 0 0 65.6847 98.0233 0 -3.02481 23.211 -94.9985 0 0 87.1501 -21.0992 0 0 -87.1501 -129.806 0 0 87.1501 -21.0992 0 0 -87.1501 -129.806 0 0 87.1501 -21.0992 0 0 -87.1501 -81.0438 0 -4.77992 -23.211 85.8237 0 0 -65.6847 -88.93 0 -4.93111 -23.211 93.8611 0 0 -95.2772 21.0992 0 0 95.2772 129.806 0 0 -95.2772 21.0992 0 0 95.2772 129.806 0 0 -95.2772 21.0992 0z"/>
  <path class="fil7" d="M927.392 1297.32c15.5799,0 29.687,6.31654 39.9,16.5284 10.2106,10.213 16.5284,24.3201 16.5284,39.9 0,15.5811 -6.31772,29.6882 -16.5295,39.9 -10.2106,10.2118 -24.3189,16.5295 -39.8988,16.5295 -15.5811,0 -29.6882,-6.31772 -39.9012,-16.5295 -10.2118,-10.2118 -16.5284,-24.3189 -16.5284,-39.9 0,-15.5799 6.31654,-29.687 16.5284,-39.9 10.2118,-10.2118 24.3201,-16.5284 39.9012,-16.5284z"/>
  <path class="fil7" d="M1219.86 1297.32c15.5799,0 29.6882,6.31654 39.9,16.5284 10.2118,10.213 16.5284,24.3201 16.5284,39.9 0,15.5811 -6.31654,29.6882 -16.5284,39.9 -10.2118,10.2118 -24.3201,16.5295 -39.9,16.5295 -15.5799,0 -29.6882,-6.31772 -39.9,-16.5295 -10.2118,-10.2118 -16.5295,-24.3189 -16.5295,-39.9 0,-15.5799 6.31772,-29.687 16.5295,-39.9 10.2118,-10.2118 24.3189,-16.5284 39.9,-16.5284z"/>
  <path class="fil8" d="M1219.86 1327.01c7.38308,0 14.0681,2.9941 18.9083,7.83308 4.83898,4.84016 7.8319,11.5252 7.8319,18.9083 0,7.38308 -2.99292,14.0693 -7.8319,18.9083 -4.83898,4.83898 -11.5252,7.83308 -18.9083,7.83308 -7.38308,0 -14.0693,-2.9941 -18.9083,-7.83308 -4.83898,-4.83898 -7.83308,-11.5252 -7.83308,-18.9083 0,-7.38308 2.9941,-14.0681 7.83308,-18.9083 4.83898,-4.83898 11.524,-7.83308 18.9083,-7.83308z"/>
  <path class="fil8" d="M927.392 1327.01c7.38308,0 14.0681,2.9941 18.9083,7.83308 4.83898,4.84016 7.8319,11.5252 7.8319,18.9083 0,7.38308 -2.99292,14.0693 -7.83308,18.9083 -4.83898,4.83898 -11.524,7.83308 -18.9071,7.83308 -7.38308,0 -14.0693,-2.9941 -18.9083,-7.83308 -4.83898,-4.83898 -7.83308,-11.5252 -7.83308,-18.9083 0,-7.38308 2.9941,-14.0681 7.83308,-18.9083 4.83898,-4.83898 11.524,-7.83308 18.9083,-7.83308z"/>
 </g>
</svg>
